<svg xmlns="http://www.w3.org/2000/svg" viewBox="0 0 32 32" width="32" height="32">
  <!-- 背景圆形 -->
  <circle cx="16" cy="16" r="15" fill="#dc2626" stroke="#991b1b" stroke-width="2"/>
  
  <!-- 语音波形 -->
  <g fill="white" opacity="0.9">
    <rect x="8" y="12" width="2" height="8" rx="1">
      <animate attributeName="height" values="8;12;8" dur="1s" repeatCount="indefinite" begin="0s"/>
    </rect>
    <rect x="11" y="10" width="2" height="12" rx="1">
      <animate attributeName="height" values="12;16;12" dur="1s" repeatCount="indefinite" begin="0.2s"/>
    </rect>
    <rect x="14" y="8" width="2" height="16" rx="1">
      <animate attributeName="height" values="16;20;16" dur="1s" repeatCount="indefinite" begin="0.4s"/>
    </rect>
    <rect x="17" y="10" width="2" height="12" rx="1">
      <animate attributeName="height" values="12;16;12" dur="1s" repeatCount="indefinite" begin="0.6s"/>
    </rect>
    <rect x="20" y="12" width="2" height="8" rx="1">
      <animate attributeName="height" values="8;12;8" dur="1s" repeatCount="indefinite" begin="0.8s"/>
    </rect>
  </g>
  
  <!-- 对话气泡 -->
  <path d="M24 20c0 2.2-1.8 4-4 4h-8c-2.2 0-4-1.8-4-4v-6c0-2.2 1.8-4 4-4h8c2.2 0 4 1.8 4 4v6z" fill="none" stroke="white" stroke-width="1.5" opacity="0.7"/>
  <circle cx="14" cy="16" r="1" fill="white" opacity="0.8"/>
  <circle cx="18" cy="16" r="1" fill="white" opacity="0.8"/>
</svg>
